<svg id="svg" version="1.1" xmlns="http://www.w3.org/2000/svg" xmlns:xlink="http://www.w3.org/1999/xlink" width="400" height="400" viewBox="0, 0, 400,400"><g id="svgg"><path id="path0" d="M94.451 101.900 C 94.954 102.725,95.577 103.580,95.833 103.800 C 96.090 104.020,97.519 105.910,99.008 108.000 C 100.498 110.090,102.600 112.970,103.679 114.400 C 107.177 119.032,116.125 131.061,119.000 134.994 C 120.540 137.100,122.025 139.076,122.300 139.384 C 122.575 139.691,122.800 140.127,122.800 140.352 C 122.800 140.576,123.030 140.904,123.310 141.080 C 123.733 141.345,124.828 142.685,127.496 146.200 C 127.663 146.420,128.340 147.410,129.000 148.400 C 129.660 149.390,130.335 150.260,130.500 150.333 C 130.665 150.407,130.800 150.713,130.800 151.013 C 130.800 151.314,131.029 151.704,131.310 151.880 C 131.590 152.056,132.116 152.650,132.479 153.200 C 133.107 154.150,134.522 155.893,135.729 157.200 C 136.033 157.530,136.619 158.340,137.031 159.000 C 137.442 159.660,138.954 161.753,140.389 163.651 C 141.825 165.549,143.360 167.609,143.800 168.230 C 144.240 168.851,145.410 170.392,146.400 171.655 C 148.303 174.084,151.006 177.742,153.000 180.588 C 153.660 181.530,154.602 182.818,155.092 183.450 C 158.351 187.649,160.400 190.455,160.400 190.717 C 160.400 190.885,160.715 191.304,161.100 191.649 C 161.485 191.993,162.070 192.676,162.400 193.165 C 162.730 193.655,163.299 194.448,163.665 194.928 C 164.031 195.407,165.601 197.510,167.152 199.600 C 168.704 201.690,170.120 203.580,170.299 203.800 C 170.478 204.020,171.159 204.920,171.812 205.800 C 172.465 206.680,173.135 207.460,173.300 207.533 C 173.465 207.607,173.600 207.834,173.600 208.039 C 173.600 208.359,179.380 216.265,180.887 218.005 C 181.175 218.338,181.852 219.238,182.392 220.005 C 182.932 220.772,183.605 221.638,183.887 221.929 C 184.169 222.219,184.400 222.616,184.400 222.810 C 184.400 223.005,184.805 223.596,185.300 224.125 C 186.818 225.745,188.400 227.756,188.400 228.066 C 188.400 228.227,188.864 228.859,189.431 229.471 C 189.998 230.083,191.018 231.442,191.698 232.492 C 192.378 233.541,193.084 234.400,193.267 234.400 C 193.450 234.400,193.600 234.595,193.600 234.833 C 193.600 235.071,194.230 236.034,195.000 236.974 C 195.770 237.914,196.400 238.889,196.400 239.141 C 196.400 239.394,196.549 239.600,196.732 239.600 C 196.915 239.600,197.671 240.455,198.412 241.500 C 199.153 242.545,199.878 243.490,200.024 243.600 C 200.169 243.710,201.774 245.870,203.590 248.400 C 205.406 250.930,207.231 253.372,207.646 253.826 C 208.061 254.280,208.400 254.865,208.400 255.126 C 208.400 255.387,208.562 255.600,208.761 255.600 C 208.960 255.600,209.751 256.545,210.520 257.700 C 211.289 258.855,213.511 261.914,215.459 264.497 C 222.829 274.274,224.204 276.139,224.360 276.563 C 224.448 276.803,224.670 277.099,224.854 277.220 C 225.038 277.341,225.911 278.421,226.793 279.620 C 227.676 280.819,228.671 282.160,229.005 282.600 C 230.433 284.484,235.050 290.787,235.600 291.606 C 235.930 292.096,236.387 292.701,236.614 292.949 C 236.960 293.325,238.545 295.413,239.689 297.000 C 239.847 297.220,240.412 297.899,240.943 298.509 L 241.909 299.618 274.025 299.605 C 291.690 299.597,306.230 299.503,306.338 299.395 C 306.569 299.164,305.122 297.102,300.307 290.800 C 296.406 285.693,296.061 285.234,295.200 284.001 C 294.870 283.528,293.824 282.120,292.876 280.871 C 289.813 276.836,287.023 273.040,285.878 271.350 C 285.263 270.442,284.274 269.140,283.680 268.457 C 283.086 267.773,281.970 266.305,281.200 265.194 C 280.430 264.083,279.440 262.755,279.000 262.244 C 278.560 261.732,277.930 260.915,277.600 260.427 C 277.270 259.940,276.505 258.982,275.900 258.298 C 275.295 257.615,274.800 256.927,274.800 256.769 C 274.800 256.610,272.910 254.027,270.600 251.028 C 268.290 248.029,266.400 245.410,266.400 245.207 C 266.400 245.005,266.171 244.696,265.890 244.520 C 265.610 244.344,265.083 243.730,264.718 243.156 C 264.353 242.582,263.818 241.862,263.528 241.556 C 263.237 241.250,262.465 240.280,261.812 239.400 C 260.475 237.599,260.319 237.399,259.150 236.000 C 258.691 235.450,257.763 234.190,257.088 233.200 C 256.413 232.210,255.487 230.930,255.030 230.356 C 254.574 229.781,253.930 228.898,253.600 228.393 C 253.270 227.887,252.545 226.917,251.988 226.237 C 251.432 225.557,250.463 224.235,249.834 223.300 C 249.205 222.365,248.536 221.600,248.346 221.600 C 248.156 221.600,248.000 221.426,248.000 221.212 C 248.000 220.999,246.644 219.064,244.987 216.912 C 241.827 212.809,241.376 212.207,240.400 210.788 C 240.070 210.308,238.000 207.526,235.800 204.605 C 233.600 201.684,231.530 198.888,231.200 198.391 C 230.642 197.552,228.107 194.233,226.944 192.818 C 226.033 191.710,219.029 182.360,217.893 180.735 C 217.284 179.864,216.603 178.937,216.380 178.676 C 215.704 177.885,207.844 167.370,207.200 166.396 C 206.618 165.515,205.020 163.465,204.203 162.549 C 203.981 162.301,203.530 161.692,203.200 161.195 C 202.870 160.698,200.797 157.931,198.593 155.046 C 196.389 152.161,194.144 149.170,193.604 148.400 C 193.063 147.630,192.476 146.820,192.298 146.600 C 191.609 145.750,183.768 135.257,183.200 134.425 C 182.680 133.665,176.164 124.908,175.293 123.800 C 175.120 123.580,174.546 122.770,174.017 122.000 C 173.488 121.230,172.818 120.330,172.527 120.000 C 172.236 119.670,171.241 118.410,170.316 117.200 C 169.390 115.990,168.490 114.820,168.315 114.600 C 168.140 114.380,166.124 111.680,163.834 108.600 C 161.544 105.520,159.187 102.415,158.596 101.700 L 157.521 100.400 125.528 100.400 L 93.535 100.400 94.451 101.900 M203.200 101.000 C 203.200 101.330,203.362 101.600,203.561 101.600 C 203.759 101.600,204.110 102.140,204.340 102.800 C 204.570 103.460,204.907 104.000,205.088 104.000 C 205.270 104.000,205.771 104.675,206.203 105.500 C 206.635 106.325,207.531 107.819,208.194 108.820 C 208.857 109.821,209.580 110.928,209.800 111.281 C 210.131 111.811,213.796 117.321,215.698 120.146 C 215.974 120.557,216.515 121.305,216.900 121.809 C 217.285 122.314,217.600 122.835,217.600 122.967 C 217.600 123.100,218.265 124.151,219.077 125.304 C 220.365 127.132,221.549 128.923,223.000 131.238 C 223.220 131.590,224.479 133.480,225.797 135.438 C 228.419 139.334,229.027 140.295,229.446 141.200 C 229.599 141.530,230.326 142.550,231.062 143.467 C 231.798 144.384,232.400 145.234,232.400 145.356 C 232.400 145.477,232.921 146.347,233.559 147.288 C 234.196 148.230,235.987 150.980,237.539 153.400 C 239.092 155.820,240.640 158.085,240.981 158.434 C 241.321 158.782,241.600 159.212,241.600 159.388 C 241.600 160.075,251.680 174.800,252.151 174.800 C 252.658 174.800,254.400 172.708,254.400 172.098 C 254.400 171.913,254.678 171.411,255.018 170.981 C 255.682 170.142,261.642 161.175,264.088 157.336 C 264.907 156.051,265.807 154.657,266.088 154.239 C 266.683 153.354,270.600 147.359,271.315 146.240 C 271.582 145.822,272.385 144.696,273.100 143.737 C 273.815 142.778,274.400 141.851,274.400 141.678 C 274.400 141.505,274.677 141.011,275.015 140.581 C 275.353 140.152,276.381 138.630,277.301 137.200 C 278.220 135.770,279.204 134.362,279.486 134.071 C 279.769 133.781,280.000 133.357,280.000 133.129 C 280.000 132.901,280.510 132.059,281.134 131.258 C 281.757 130.456,282.381 129.485,282.521 129.100 C 282.661 128.715,282.948 128.400,283.160 128.400 C 283.373 128.400,283.670 128.009,283.822 127.531 C 283.974 127.053,284.253 126.468,284.443 126.231 C 285.774 124.568,290.096 117.996,290.447 117.100 C 290.684 116.495,291.041 116.000,291.239 116.000 C 291.438 116.000,291.600 115.826,291.600 115.613 C 291.600 115.399,292.365 114.133,293.300 112.799 C 295.860 109.145,297.945 105.907,298.386 104.900 C 298.603 104.405,298.965 104.000,299.190 104.000 C 299.416 104.000,299.600 103.803,299.600 103.563 C 299.600 103.323,299.960 102.669,300.400 102.109 C 300.840 101.550,301.200 100.936,301.200 100.746 C 301.200 100.553,279.508 100.400,252.200 100.400 C 208.911 100.400,203.200 100.470,203.200 101.000 M145.571 228.300 C 144.613 229.785,143.689 231.180,143.517 231.400 C 142.614 232.554,136.267 242.285,136.083 242.799 C 135.964 243.130,135.357 244.056,134.734 244.858 C 134.110 245.659,133.600 246.514,133.600 246.758 C 133.600 247.001,133.416 247.200,133.190 247.200 C 132.965 247.200,132.607 247.655,132.396 248.211 C 132.185 248.766,131.822 249.441,131.591 249.711 C 131.360 249.980,130.232 251.659,129.085 253.443 C 127.938 255.227,126.820 256.967,126.600 257.309 C 126.380 257.651,125.165 259.460,123.900 261.327 C 122.635 263.195,121.600 264.921,121.600 265.162 C 121.600 265.403,121.424 265.600,121.208 265.600 C 120.993 265.600,120.427 266.365,119.951 267.300 C 119.475 268.235,118.526 269.720,117.843 270.600 C 117.159 271.480,116.383 272.560,116.117 273.000 C 115.852 273.440,115.148 274.610,114.553 275.600 C 113.958 276.590,113.231 277.544,112.936 277.720 C 112.641 277.896,112.400 278.382,112.400 278.800 C 112.400 279.218,112.166 279.704,111.880 279.880 C 111.594 280.056,110.829 281.076,110.180 282.146 C 109.531 283.217,108.820 284.387,108.600 284.746 C 108.380 285.106,107.480 286.447,106.600 287.727 C 104.197 291.222,102.040 294.526,101.722 295.200 C 101.565 295.530,100.934 296.546,100.319 297.458 C 99.704 298.370,99.200 299.225,99.200 299.358 C 99.200 299.491,121.160 299.600,148.000 299.600 C 174.840 299.600,196.800 299.506,196.800 299.392 C 196.800 299.278,196.309 298.423,195.708 297.492 C 195.108 296.561,194.433 295.507,194.208 295.149 C 193.984 294.792,193.035 293.384,192.100 292.021 C 191.165 290.658,190.400 289.464,190.400 289.368 C 190.400 289.271,189.770 288.295,189.000 287.200 C 188.230 286.105,187.600 285.026,187.600 284.804 C 187.600 284.582,187.430 284.400,187.222 284.400 C 187.014 284.400,186.609 283.964,186.322 283.432 C 185.820 282.501,183.647 278.924,182.400 276.977 C 182.070 276.461,181.035 274.945,180.100 273.607 C 179.165 272.269,178.400 271.080,178.400 270.963 C 178.400 270.847,177.770 269.927,177.000 268.918 C 176.230 267.910,175.600 266.841,175.600 266.542 C 175.600 266.244,175.414 266.000,175.187 266.000 C 174.961 266.000,174.661 265.685,174.521 265.300 C 174.381 264.915,173.802 263.969,173.234 263.198 C 172.665 262.428,171.972 261.438,171.692 260.998 C 171.413 260.559,170.693 259.421,170.092 258.470 C 167.658 254.613,164.799 250.176,164.505 249.800 C 164.141 249.332,162.788 247.293,162.205 246.333 C 161.841 245.734,157.415 239.086,156.391 237.600 C 156.163 237.270,155.004 235.470,153.815 233.600 C 152.625 231.730,151.500 230.020,151.314 229.800 C 151.129 229.580,150.442 228.552,149.788 227.515 C 148.200 224.995,147.633 225.100,145.571 228.300 " stroke="none" fill="#c4f96e" fill-rule="evenodd"></path><path id="path1" d="M0.000 200.000 L 0.000 400.000 200.000 400.000 L 400.000 400.000 400.000 200.000 L 400.000 0.000 200.000 0.000 L 0.000 0.000 0.000 200.000 M159.204 100.581 C 161.000 102.351,164.400 106.892,164.400 107.522 C 164.400 107.679,164.760 108.032,165.200 108.307 C 165.640 108.582,166.000 108.993,166.000 109.220 C 166.000 109.669,166.598 110.477,167.700 111.517 C 168.085 111.880,168.400 112.323,168.400 112.500 C 168.400 112.678,169.268 113.943,170.329 115.311 C 171.390 116.680,172.920 118.700,173.730 119.800 C 174.540 120.900,175.472 122.085,175.801 122.434 C 176.131 122.782,176.400 123.202,176.400 123.366 C 176.400 123.757,179.253 127.306,179.900 127.720 C 180.175 127.896,180.400 128.211,180.400 128.420 C 180.400 128.629,180.677 129.115,181.016 129.500 C 181.356 129.885,182.880 131.910,184.404 134.000 C 185.928 136.090,187.424 138.070,187.730 138.400 C 188.035 138.730,188.972 139.990,189.812 141.200 C 190.652 142.410,192.793 145.314,194.570 147.653 C 196.346 149.993,198.070 152.301,198.400 152.783 C 199.147 153.875,199.330 154.118,203.004 158.902 C 204.652 161.047,206.000 162.900,206.000 163.018 C 206.000 163.245,206.571 163.978,207.635 165.119 C 207.984 165.494,208.822 166.610,209.497 167.600 C 210.171 168.590,211.371 170.120,212.162 171.000 C 212.952 171.880,213.600 172.710,213.600 172.844 C 213.600 172.978,215.445 175.524,217.700 178.502 C 219.955 181.480,222.070 184.323,222.400 184.820 C 222.730 185.318,223.315 186.007,223.700 186.351 C 224.085 186.696,224.400 187.118,224.400 187.289 C 224.400 187.460,224.679 187.915,225.019 188.300 C 226.049 189.465,230.000 194.797,230.000 195.023 C 230.000 195.139,230.186 195.451,230.412 195.717 C 230.639 195.983,231.350 196.807,231.992 197.550 C 232.635 198.292,233.663 199.642,234.279 200.550 C 234.894 201.457,235.623 202.344,235.899 202.520 C 236.174 202.696,236.400 203.101,236.400 203.420 C 236.400 203.739,236.550 204.000,236.733 204.000 C 236.916 204.000,237.641 204.855,238.344 205.900 C 240.029 208.404,242.226 211.396,244.200 213.878 C 245.080 214.984,246.070 216.302,246.400 216.807 C 246.730 217.311,247.315 218.007,247.700 218.351 C 248.085 218.696,248.400 219.137,248.400 219.332 C 248.400 219.527,249.273 220.792,250.340 222.143 C 251.407 223.494,252.965 225.590,253.802 226.800 C 254.638 228.010,255.565 229.144,255.861 229.320 C 256.158 229.496,256.400 229.834,256.400 230.071 C 256.400 230.309,257.039 231.245,257.820 232.152 C 259.393 233.978,259.319 233.879,261.000 236.400 C 262.421 238.532,262.435 238.549,264.212 240.600 C 264.975 241.480,265.600 242.307,265.600 242.439 C 265.600 242.653,266.238 243.494,267.666 245.161 C 267.930 245.470,268.765 246.640,269.520 247.761 C 270.276 248.883,271.098 249.980,271.347 250.200 C 271.596 250.420,272.340 251.408,273.000 252.395 C 274.151 254.116,275.151 255.367,277.100 257.522 C 277.595 258.069,278.000 258.678,278.000 258.875 C 278.000 259.273,278.638 260.114,279.700 261.117 C 280.085 261.480,280.401 261.963,280.402 262.189 C 280.403 262.415,280.898 263.146,281.502 263.812 C 282.106 264.479,283.037 265.649,283.570 266.412 C 284.104 267.176,284.779 267.944,285.070 268.120 C 285.362 268.296,285.600 268.673,285.600 268.958 C 285.600 269.243,286.061 269.999,286.624 270.638 C 287.589 271.733,289.527 274.317,294.477 281.114 C 295.645 282.717,296.870 284.366,297.200 284.777 C 297.530 285.189,298.070 285.930,298.400 286.425 C 298.730 286.920,299.315 287.607,299.700 287.951 C 300.085 288.296,300.400 288.732,300.400 288.922 C 300.400 289.111,301.075 290.104,301.900 291.129 C 302.725 292.153,303.535 293.174,303.699 293.396 C 303.864 293.618,304.972 295.086,306.162 296.658 C 307.742 298.745,308.206 299.634,307.882 299.958 C 307.566 300.274,297.941 300.400,274.149 300.400 C 238.606 300.400,239.600 300.453,239.600 298.571 C 239.600 298.257,239.414 298.000,239.187 298.000 C 238.961 298.000,238.664 297.711,238.529 297.358 C 238.393 297.005,237.679 296.060,236.943 295.258 C 236.206 294.456,235.603 293.569,235.602 293.287 C 235.601 293.006,235.330 292.671,235.000 292.545 C 234.670 292.418,234.400 292.058,234.400 291.745 C 234.400 291.431,234.138 291.074,233.817 290.951 C 233.496 290.828,232.794 289.979,232.257 289.064 C 231.720 288.149,230.858 286.934,230.340 286.364 C 228.993 284.879,227.600 282.895,227.600 282.459 C 227.600 282.254,227.330 281.982,227.000 281.855 C 226.670 281.729,226.400 281.358,226.400 281.032 C 226.400 280.706,226.175 280.296,225.900 280.120 C 225.381 279.788,223.600 277.390,223.600 277.023 C 223.600 276.909,222.970 276.166,222.200 275.373 C 221.430 274.580,220.800 273.696,220.800 273.408 C 220.800 273.121,220.530 272.782,220.200 272.655 C 219.870 272.529,219.600 272.149,219.600 271.813 C 219.600 271.476,219.445 271.200,219.256 271.200 C 218.854 271.200,215.600 266.560,215.600 265.987 C 215.600 265.774,215.330 265.600,215.000 265.600 C 214.670 265.600,214.400 265.405,214.400 265.167 C 214.400 264.677,211.663 261.168,210.900 260.680 C 210.625 260.504,210.400 260.127,210.400 259.842 C 210.400 259.557,210.040 258.998,209.600 258.600 C 209.160 258.202,208.800 257.628,208.800 257.325 C 208.800 257.023,208.530 256.671,208.200 256.545 C 207.870 256.418,207.600 256.064,207.600 255.757 C 207.600 255.451,207.445 255.200,207.256 255.200 C 207.066 255.200,206.161 254.107,205.244 252.771 C 204.328 251.435,203.401 250.130,203.185 249.871 C 201.436 247.771,199.600 245.213,199.600 244.876 C 199.600 244.651,199.440 244.407,199.244 244.333 C 198.747 244.148,195.600 240.106,195.600 239.655 C 195.600 239.452,195.330 239.182,195.000 239.055 C 194.670 238.929,194.400 238.577,194.400 238.275 C 194.400 237.972,194.040 237.398,193.600 237.000 C 193.160 236.602,192.800 236.053,192.800 235.781 C 192.800 235.508,192.530 235.182,192.200 235.055 C 191.870 234.929,191.600 234.549,191.600 234.213 C 191.600 233.876,191.444 233.600,191.254 233.600 C 191.064 233.600,190.390 232.835,189.756 231.900 C 189.121 230.965,188.377 230.056,188.101 229.880 C 187.826 229.704,187.600 229.370,187.600 229.137 C 187.600 228.904,186.700 227.582,185.600 226.200 C 184.500 224.818,183.600 223.587,183.600 223.466 C 183.600 223.344,182.971 222.560,182.202 221.722 C 181.433 220.885,180.803 219.994,180.802 219.743 C 180.801 219.491,180.530 219.182,180.200 219.055 C 179.870 218.929,179.600 218.549,179.600 218.213 C 179.600 217.876,179.450 217.600,179.267 217.600 C 179.084 217.600,178.363 216.717,177.664 215.638 C 176.965 214.560,175.947 213.255,175.403 212.738 C 174.859 212.222,174.411 211.658,174.407 211.484 C 174.397 211.028,172.690 208.658,172.100 208.280 C 171.825 208.104,171.600 207.799,171.600 207.602 C 171.600 207.406,170.971 206.560,170.202 205.722 C 169.433 204.885,168.803 203.994,168.802 203.743 C 168.801 203.491,168.530 203.182,168.200 203.055 C 167.870 202.929,167.600 202.549,167.600 202.213 C 167.600 201.876,167.452 201.600,167.271 201.600 C 167.089 201.600,166.080 200.340,165.028 198.800 C 163.976 197.260,162.954 196.000,162.757 196.000 C 162.561 196.000,162.400 195.728,162.400 195.396 C 162.400 195.064,162.040 194.484,161.600 194.107 C 161.160 193.730,160.800 193.211,160.800 192.954 C 160.800 192.696,160.530 192.382,160.200 192.255 C 159.870 192.129,159.600 191.749,159.600 191.413 C 159.600 191.076,159.445 190.800,159.256 190.800 C 159.066 190.800,158.161 189.707,157.244 188.371 C 156.328 187.035,155.405 185.730,155.195 185.471 C 153.310 183.151,152.800 182.428,152.800 182.076 C 152.800 181.851,152.628 181.607,152.418 181.533 C 152.079 181.415,150.082 178.864,148.400 176.400 C 147.494 175.073,143.489 169.873,142.909 169.271 C 142.629 168.981,142.400 168.603,142.400 168.433 C 142.400 168.262,142.085 167.752,141.700 167.299 C 141.315 166.845,140.730 166.082,140.400 165.602 C 140.070 165.122,139.390 164.250,138.889 163.665 C 137.829 162.427,137.620 162.148,136.743 160.800 C 136.385 160.250,135.703 159.358,135.228 158.818 C 134.753 158.278,133.988 157.227,133.528 156.484 C 133.069 155.740,132.177 154.567,131.546 153.877 C 130.916 153.186,130.396 152.437,130.391 152.211 C 130.386 151.985,129.801 151.137,129.091 150.327 C 127.071 148.022,126.400 147.078,126.400 146.539 C 126.400 146.264,126.162 145.896,125.870 145.720 C 125.579 145.544,124.904 144.770,124.370 144.000 C 123.837 143.230,123.175 142.456,122.900 142.280 C 122.625 142.104,122.400 141.739,122.400 141.469 C 122.400 141.199,122.085 140.686,121.700 140.329 C 120.556 139.270,119.153 137.511,118.089 135.803 C 117.539 134.921,116.837 133.930,116.528 133.600 C 115.991 133.026,113.665 129.865,112.400 127.990 C 112.070 127.500,109.955 124.709,107.700 121.786 C 105.445 118.863,103.600 116.270,103.600 116.023 C 103.600 115.777,103.330 115.471,103.000 115.345 C 102.670 115.218,102.400 114.904,102.400 114.646 C 102.400 114.389,102.085 113.896,101.700 113.551 C 101.315 113.207,100.730 112.514,100.400 112.013 C 99.920 111.284,94.000 103.457,92.297 101.300 C 90.960 99.607,91.096 99.600,125.553 99.600 L 158.208 99.600 159.204 100.581 M301.979 100.174 C 302.313 100.577,302.335 100.974,302.052 101.502 C 301.478 102.576,298.917 106.509,298.417 107.085 C 298.186 107.352,297.788 108.027,297.534 108.585 C 297.280 109.143,296.920 109.600,296.736 109.600 C 296.551 109.600,296.400 109.861,296.400 110.180 C 296.400 110.499,296.171 110.904,295.892 111.080 C 295.612 111.256,295.163 111.850,294.894 112.400 C 294.126 113.972,293.443 114.973,292.900 115.320 C 292.625 115.496,292.400 115.795,292.400 115.985 C 292.400 116.175,291.770 117.287,291.000 118.456 C 290.230 119.625,289.600 120.811,289.600 121.091 C 289.600 121.371,289.454 121.600,289.276 121.600 C 289.098 121.600,288.155 122.815,287.181 124.300 C 286.207 125.785,285.183 127.238,284.905 127.529 C 284.627 127.819,284.400 128.404,284.400 128.829 C 284.400 129.253,284.175 129.600,283.900 129.600 C 283.625 129.601,282.860 130.519,282.200 131.641 C 280.142 135.139,278.771 137.275,278.375 137.600 C 278.240 137.710,277.634 138.655,277.027 139.700 C 276.421 140.745,275.801 141.600,275.650 141.600 C 275.499 141.600,275.162 142.095,274.902 142.700 C 274.340 144.008,273.530 145.305,273.064 145.646 C 272.879 145.781,272.519 146.261,272.264 146.712 C 272.009 147.163,271.170 148.552,270.400 149.800 C 269.630 151.048,268.816 152.368,268.592 152.734 C 268.367 153.100,267.651 154.210,267.000 155.200 C 266.349 156.190,265.633 157.300,265.408 157.667 C 264.112 159.787,261.563 163.490,261.026 164.034 C 260.682 164.382,260.400 164.789,260.400 164.938 C 260.400 165.086,259.770 166.105,259.000 167.200 C 258.230 168.295,257.600 169.374,257.600 169.596 C 257.600 169.818,257.442 170.000,257.249 170.000 C 257.055 170.000,256.673 170.540,256.400 171.200 C 256.127 171.860,255.764 172.400,255.595 172.400 C 255.425 172.400,255.183 172.805,255.056 173.300 C 254.741 174.529,252.927 176.400,252.051 176.400 C 251.355 176.400,248.800 173.627,248.800 172.872 C 248.800 172.666,248.530 172.274,248.200 172.000 C 247.870 171.726,247.600 171.254,247.600 170.951 C 247.600 170.648,247.285 170.062,246.900 169.649 C 246.278 168.982,243.697 165.127,242.584 163.204 C 242.356 162.809,241.913 162.177,241.600 161.800 C 241.014 161.094,240.247 159.852,239.746 158.800 C 239.589 158.470,239.222 158.056,238.930 157.880 C 238.639 157.704,238.400 157.387,238.400 157.176 C 238.400 156.965,237.770 155.895,237.000 154.800 C 236.230 153.705,235.600 152.646,235.600 152.447 C 235.600 152.248,235.330 151.982,235.000 151.855 C 234.670 151.729,234.400 151.351,234.400 151.016 C 234.400 150.681,233.770 149.582,233.000 148.573 C 232.230 147.564,231.600 146.582,231.600 146.390 C 231.600 146.198,231.189 145.597,230.686 145.055 C 230.183 144.513,229.508 143.558,229.186 142.934 C 228.864 142.310,228.375 141.562,228.100 141.271 C 227.825 140.981,227.600 140.486,227.600 140.171 C 227.600 139.857,227.414 139.600,227.187 139.600 C 226.961 139.600,226.657 139.285,226.512 138.900 C 226.368 138.515,225.653 137.347,224.925 136.304 C 224.196 135.261,223.600 134.226,223.600 134.004 C 223.600 133.782,223.458 133.600,223.285 133.600 C 222.877 133.600,220.181 129.599,219.817 128.454 C 219.664 127.970,219.118 127.122,218.606 126.568 C 218.093 126.015,217.399 124.986,217.063 124.281 C 216.727 123.576,216.121 122.640,215.715 122.200 C 214.619 121.012,211.600 116.277,211.600 115.746 C 211.600 115.493,211.330 115.182,211.000 115.055 C 210.670 114.929,210.400 114.577,210.400 114.275 C 210.400 113.972,210.040 113.398,209.600 113.000 C 209.160 112.602,208.800 112.134,208.800 111.961 C 208.800 111.788,207.809 110.240,206.597 108.523 C 205.386 106.805,204.174 104.950,203.905 104.400 C 203.636 103.850,203.289 103.306,203.133 103.192 C 202.607 102.805,202.021 100.811,202.254 100.203 C 202.596 99.311,301.239 99.283,301.979 100.174 M149.722 225.200 C 149.972 225.860,150.316 226.400,150.488 226.400 C 150.659 226.400,150.800 226.676,150.800 227.013 C 150.800 227.349,151.057 227.724,151.372 227.845 C 151.687 227.965,152.127 228.590,152.351 229.232 C 152.575 229.874,152.948 230.400,153.179 230.400 C 153.411 230.400,153.600 230.643,153.600 230.940 C 153.600 231.238,154.500 232.670,155.600 234.123 C 156.700 235.576,157.600 236.939,157.600 237.152 C 157.600 237.365,158.230 238.364,159.000 239.373 C 159.770 240.382,160.400 241.280,160.400 241.369 C 160.400 241.581,163.041 245.660,163.583 246.285 C 163.814 246.552,164.212 247.227,164.466 247.785 C 164.720 248.343,165.080 248.800,165.264 248.800 C 165.449 248.800,165.600 248.982,165.600 249.204 C 165.600 249.426,166.230 250.505,167.000 251.600 C 167.770 252.695,168.400 253.774,168.400 253.996 C 168.400 254.218,168.559 254.400,168.754 254.400 C 169.072 254.400,172.400 259.644,172.400 260.145 C 172.400 260.258,172.947 260.947,173.615 261.675 C 174.283 262.404,174.932 263.405,175.058 263.900 C 175.184 264.395,175.452 264.800,175.653 264.800 C 175.855 264.800,176.191 265.250,176.400 265.800 C 176.609 266.350,176.930 266.800,177.113 266.800 C 177.296 266.800,177.752 267.495,178.127 268.343 C 178.501 269.192,179.166 270.300,179.604 270.805 C 180.042 271.309,180.400 271.965,180.400 272.261 C 180.400 272.558,180.563 272.800,180.762 272.800 C 180.961 272.800,181.621 273.655,182.227 274.700 C 182.834 275.745,183.436 276.690,183.565 276.800 C 183.951 277.129,185.600 279.550,185.600 279.788 C 185.600 279.909,186.230 280.905,187.000 282.000 C 187.770 283.095,188.400 284.179,188.400 284.408 C 188.400 284.638,188.670 284.929,189.000 285.055 C 189.330 285.182,189.600 285.510,189.600 285.785 C 189.600 286.060,190.185 287.081,190.900 288.054 C 191.615 289.026,192.380 290.123,192.600 290.491 C 192.820 290.858,193.472 291.843,194.048 292.679 C 196.886 296.796,198.051 298.841,197.926 299.489 C 197.763 300.337,99.544 300.826,97.976 299.987 C 97.214 299.580,98.149 297.378,99.300 296.867 C 99.465 296.793,99.600 296.561,99.600 296.350 C 99.600 295.849,101.259 293.490,101.900 293.080 C 102.175 292.904,102.400 292.512,102.400 292.209 C 102.400 291.905,102.635 291.419,102.922 291.129 C 103.210 290.838,103.569 290.330,103.720 290.000 C 104.139 289.085,104.924 287.950,105.700 287.135 C 106.085 286.731,106.400 286.139,106.400 285.820 C 106.400 285.501,106.625 285.096,106.900 284.920 C 107.175 284.744,107.846 283.745,108.392 282.700 C 108.937 281.655,109.510 280.800,109.665 280.800 C 109.819 280.800,110.071 280.395,110.223 279.900 C 110.375 279.405,110.792 278.694,111.150 278.319 C 112.329 277.084,112.699 276.549,112.978 275.669 C 113.130 275.191,113.426 274.800,113.637 274.800 C 113.847 274.800,114.205 274.395,114.431 273.900 C 115.151 272.322,116.115 270.607,116.396 270.400 C 116.546 270.290,117.166 269.345,117.773 268.300 C 118.379 267.255,119.039 266.400,119.238 266.400 C 119.437 266.400,119.600 266.218,119.600 265.996 C 119.600 265.774,120.230 264.695,121.000 263.600 C 121.770 262.505,122.400 261.509,122.400 261.388 C 122.400 261.060,124.153 258.621,124.500 258.467 C 124.665 258.393,124.800 258.188,124.800 258.011 C 124.800 257.620,128.931 251.243,129.730 250.400 C 130.043 250.070,130.424 249.395,130.576 248.900 C 130.729 248.405,131.022 248.000,131.227 248.000 C 131.432 248.000,131.600 247.724,131.600 247.387 C 131.600 247.051,131.870 246.671,132.200 246.545 C 132.530 246.418,132.800 246.141,132.800 245.929 C 132.800 245.717,133.385 244.702,134.100 243.672 C 134.815 242.642,135.580 241.500,135.800 241.134 C 136.020 240.768,136.798 239.463,137.529 238.234 C 138.261 237.005,139.005 236.000,139.183 236.000 C 139.361 236.000,139.621 235.685,139.760 235.300 C 140.121 234.301,140.963 232.925,141.736 232.071 C 142.101 231.667,142.400 231.126,142.400 230.869 C 142.400 230.611,142.670 230.400,143.000 230.400 C 143.343 230.400,143.600 230.040,143.600 229.558 C 143.600 229.094,144.114 228.059,144.742 227.258 C 145.370 226.456,146.097 225.395,146.356 224.900 C 147.105 223.473,149.139 223.654,149.722 225.200 " stroke="none" fill="#040404" fill-rule="evenodd"></path><path id="path2" d="M92.400 100.200 C 92.065 100.604,92.031 100.963,92.297 101.300 C 94.000 103.457,99.920 111.284,100.400 112.013 C 100.730 112.514,101.315 113.207,101.700 113.551 C 102.085 113.896,102.400 114.389,102.400 114.646 C 102.400 114.904,102.670 115.218,103.000 115.345 C 103.330 115.471,103.600 115.777,103.600 116.023 C 103.600 116.270,105.445 118.863,107.700 121.786 C 109.955 124.709,112.070 127.500,112.400 127.990 C 113.665 129.865,115.991 133.026,116.528 133.600 C 116.837 133.930,117.539 134.921,118.089 135.803 C 119.153 137.511,120.556 139.270,121.700 140.329 C 122.085 140.686,122.400 141.199,122.400 141.469 C 122.400 141.739,122.625 142.104,122.900 142.280 C 123.175 142.456,123.837 143.230,124.370 144.000 C 124.904 144.770,125.579 145.544,125.870 145.720 C 126.162 145.896,126.400 146.264,126.400 146.539 C 126.400 147.078,127.071 148.022,129.091 150.327 C 129.801 151.137,130.386 151.985,130.391 152.211 C 130.396 152.437,130.916 153.186,131.546 153.877 C 132.177 154.567,133.069 155.740,133.528 156.484 C 133.988 157.227,134.753 158.278,135.228 158.818 C 135.703 159.358,136.385 160.250,136.743 160.800 C 137.620 162.148,137.829 162.427,138.889 163.665 C 139.390 164.250,140.070 165.122,140.400 165.602 C 140.730 166.082,141.315 166.845,141.700 167.299 C 142.085 167.752,142.400 168.262,142.400 168.433 C 142.400 168.603,142.629 168.981,142.909 169.271 C 143.489 169.873,147.494 175.073,148.400 176.400 C 150.082 178.864,152.079 181.415,152.418 181.533 C 152.628 181.607,152.800 181.851,152.800 182.076 C 152.800 182.428,153.310 183.151,155.195 185.471 C 155.405 185.730,156.328 187.035,157.244 188.371 C 158.161 189.707,159.066 190.800,159.256 190.800 C 159.445 190.800,159.600 191.076,159.600 191.413 C 159.600 191.749,159.870 192.129,160.200 192.255 C 160.530 192.382,160.800 192.696,160.800 192.954 C 160.800 193.211,161.160 193.730,161.600 194.107 C 162.040 194.484,162.400 195.064,162.400 195.396 C 162.400 195.728,162.561 196.000,162.757 196.000 C 162.954 196.000,163.976 197.260,165.028 198.800 C 166.080 200.340,167.089 201.600,167.271 201.600 C 167.452 201.600,167.600 201.876,167.600 202.213 C 167.600 202.549,167.870 202.929,168.200 203.055 C 168.530 203.182,168.801 203.491,168.802 203.743 C 168.803 203.994,169.433 204.885,170.202 205.722 C 170.971 206.560,171.600 207.406,171.600 207.602 C 171.600 207.799,171.825 208.104,172.100 208.280 C 172.690 208.658,174.397 211.028,174.407 211.484 C 174.411 211.658,174.859 212.222,175.403 212.738 C 175.947 213.255,176.965 214.560,177.664 215.638 C 178.363 216.717,179.084 217.600,179.267 217.600 C 179.450 217.600,179.600 217.876,179.600 218.213 C 179.600 218.549,179.870 218.929,180.200 219.055 C 180.530 219.182,180.801 219.491,180.802 219.743 C 180.803 219.994,181.433 220.885,182.202 221.722 C 182.971 222.560,183.600 223.344,183.600 223.466 C 183.600 223.587,184.500 224.818,185.600 226.200 C 186.700 227.582,187.600 228.904,187.600 229.137 C 187.600 229.370,187.826 229.704,188.101 229.880 C 188.377 230.056,189.121 230.965,189.756 231.900 C 190.390 232.835,191.064 233.600,191.254 233.600 C 191.444 233.600,191.600 233.876,191.600 234.213 C 191.600 234.549,191.870 234.929,192.200 235.055 C 192.530 235.182,192.800 235.508,192.800 235.781 C 192.800 236.053,193.160 236.602,193.600 237.000 C 194.040 237.398,194.400 237.972,194.400 238.275 C 194.400 238.577,194.670 238.929,195.000 239.055 C 195.330 239.182,195.600 239.452,195.600 239.655 C 195.600 240.106,198.747 244.148,199.244 244.333 C 199.440 244.407,199.600 244.651,199.600 244.876 C 199.600 245.213,201.436 247.771,203.185 249.871 C 203.401 250.130,204.328 251.435,205.244 252.771 C 206.161 254.107,207.066 255.200,207.256 255.200 C 207.445 255.200,207.600 255.451,207.600 255.757 C 207.600 256.064,207.870 256.418,208.200 256.545 C 208.530 256.671,208.800 257.023,208.800 257.325 C 208.800 257.628,209.160 258.202,209.600 258.600 C 210.040 258.998,210.400 259.557,210.400 259.842 C 210.400 260.127,210.625 260.504,210.900 260.680 C 211.663 261.168,214.400 264.677,214.400 265.167 C 214.400 265.405,214.670 265.600,215.000 265.600 C 215.330 265.600,215.600 265.774,215.600 265.987 C 215.600 266.560,218.854 271.200,219.256 271.200 C 219.445 271.200,219.600 271.476,219.600 271.813 C 219.600 272.149,219.870 272.529,220.200 272.655 C 220.530 272.782,220.800 273.104,220.800 273.371 C 220.800 273.921,222.909 276.400,223.377 276.400 C 223.545 276.400,223.169 275.781,222.541 275.026 C 221.914 274.270,220.723 272.695,219.895 271.526 C 216.772 267.115,211.853 260.573,211.140 259.884 C 210.733 259.491,210.400 258.915,210.400 258.604 C 210.400 258.294,210.163 257.896,209.873 257.720 C 209.351 257.404,208.636 256.467,202.000 247.407 C 200.130 244.854,197.970 241.989,197.200 241.041 C 196.430 240.092,195.530 238.909,195.200 238.412 C 194.870 237.914,193.070 235.454,191.200 232.944 C 189.330 230.433,185.730 225.593,183.200 222.186 C 178.447 215.786,169.437 203.775,162.800 194.992 C 160.710 192.226,158.550 189.296,158.000 188.481 C 157.123 187.182,152.821 181.359,149.222 176.600 C 146.690 173.251,142.916 168.170,140.786 165.243 C 139.569 163.569,138.274 161.840,137.910 161.400 C 137.195 160.537,132.184 153.811,131.200 152.393 C 130.870 151.918,130.184 151.074,129.675 150.517 C 129.166 149.960,128.282 148.761,127.709 147.852 C 126.724 146.287,123.648 142.030,123.192 141.600 C 122.862 141.289,119.870 137.397,119.200 136.407 C 118.431 135.272,115.725 131.523,115.296 131.000 C 115.116 130.780,113.942 129.209,112.688 127.509 C 111.434 125.809,110.147 124.099,109.828 123.709 C 109.077 122.789,105.177 117.539,104.400 116.401 C 103.579 115.199,101.147 111.991,95.636 104.838 C 93.872 102.550,92.523 100.525,92.638 100.338 C 92.753 100.152,107.518 100.000,125.449 100.000 L 158.052 100.000 159.126 101.255 C 159.717 101.945,161.460 104.257,163.000 106.392 C 164.540 108.527,166.305 110.887,166.923 111.637 C 168.600 113.672,174.452 121.476,176.255 124.083 C 177.124 125.339,178.331 126.959,178.937 127.683 C 179.543 128.407,181.010 130.350,182.196 132.000 C 183.382 133.650,185.454 136.440,186.799 138.200 C 188.145 139.960,190.854 143.560,192.818 146.200 C 194.782 148.840,196.627 151.270,196.919 151.600 C 197.210 151.930,198.417 153.549,199.600 155.198 C 200.783 156.847,201.900 158.377,202.083 158.598 C 202.265 158.819,203.756 160.800,205.395 163.000 C 207.034 165.200,209.201 168.080,210.211 169.400 C 212.922 172.947,221.223 184.022,227.149 192.000 C 230.009 195.850,232.848 199.593,233.457 200.317 C 234.066 201.041,235.276 202.661,236.145 203.917 C 237.996 206.591,240.177 209.558,240.894 210.378 C 241.515 211.087,243.981 214.395,244.800 215.616 C 245.130 216.108,245.778 216.981,246.240 217.556 C 247.023 218.529,252.650 226.041,257.061 232.000 C 258.119 233.430,260.969 237.210,263.394 240.400 C 265.819 243.590,268.342 246.951,269.001 247.868 C 269.661 248.785,272.450 252.526,275.200 256.180 C 277.950 259.835,282.040 265.294,284.289 268.312 C 286.538 271.331,288.647 274.160,288.976 274.600 C 289.305 275.040,291.105 277.470,292.975 280.000 C 294.846 282.530,296.620 284.870,296.916 285.200 C 297.213 285.530,297.888 286.430,298.417 287.200 C 298.946 287.970,299.517 288.780,299.687 289.000 C 300.059 289.481,304.983 295.994,306.564 298.096 L 307.689 299.593 306.745 299.971 C 305.883 300.316,305.872 300.352,306.620 300.375 C 308.486 300.432,308.383 299.591,306.162 296.658 C 304.972 295.086,303.864 293.618,303.699 293.396 C 303.535 293.174,302.725 292.153,301.900 291.129 C 301.075 290.104,300.400 289.111,300.400 288.922 C 300.400 288.732,300.085 288.296,299.700 287.951 C 299.315 287.607,298.730 286.920,298.400 286.425 C 298.070 285.930,297.530 285.189,297.200 284.777 C 296.870 284.366,295.645 282.717,294.477 281.114 C 289.527 274.317,287.589 271.733,286.624 270.638 C 286.061 269.999,285.600 269.243,285.600 268.958 C 285.600 268.673,285.362 268.296,285.070 268.120 C 284.779 267.944,284.104 267.176,283.570 266.412 C 283.037 265.649,282.106 264.479,281.502 263.812 C 280.898 263.146,280.403 262.415,280.402 262.189 C 280.401 261.963,280.085 261.480,279.700 261.117 C 278.638 260.114,278.000 259.273,278.000 258.875 C 278.000 258.678,277.595 258.069,277.100 257.522 C 275.151 255.367,274.151 254.116,273.000 252.395 C 272.340 251.408,271.596 250.420,271.347 250.200 C 271.098 249.980,270.276 248.883,269.520 247.761 C 268.765 246.640,267.930 245.470,267.666 245.161 C 266.238 243.494,265.600 242.653,265.600 242.439 C 265.600 242.307,264.975 241.480,264.212 240.600 C 262.435 238.549,262.421 238.532,261.000 236.400 C 259.319 233.879,259.393 233.978,257.820 232.152 C 257.039 231.245,256.400 230.309,256.400 230.071 C 256.400 229.834,256.158 229.496,255.861 229.320 C 255.565 229.144,254.638 228.010,253.802 226.800 C 252.965 225.590,251.407 223.494,250.340 222.143 C 249.273 220.792,248.400 219.527,248.400 219.332 C 248.400 219.137,248.085 218.696,247.700 218.351 C 247.315 218.007,246.730 217.311,246.400 216.807 C 246.070 216.302,245.080 214.984,244.200 213.878 C 242.226 211.396,240.029 208.404,238.344 205.900 C 237.641 204.855,236.916 204.000,236.733 204.000 C 236.550 204.000,236.400 203.739,236.400 203.420 C 236.400 203.101,236.174 202.696,235.899 202.520 C 235.623 202.344,234.894 201.457,234.279 200.550 C 233.663 199.642,232.635 198.292,231.992 197.550 C 231.350 196.807,230.639 195.983,230.412 195.717 C 230.186 195.451,230.000 195.139,230.000 195.023 C 230.000 194.797,226.049 189.465,225.019 188.300 C 224.679 187.915,224.400 187.460,224.400 187.289 C 224.400 187.118,224.085 186.696,223.700 186.351 C 223.315 186.007,222.730 185.318,222.400 184.820 C 222.070 184.323,219.955 181.480,217.700 178.502 C 215.445 175.524,213.600 172.978,213.600 172.844 C 213.600 172.710,212.952 171.880,212.162 171.000 C 211.371 170.120,210.171 168.590,209.497 167.600 C 208.822 166.610,207.984 165.494,207.635 165.119 C 206.571 163.978,206.000 163.245,206.000 163.018 C 206.000 162.900,204.652 161.047,203.004 158.902 C 199.330 154.118,199.147 153.875,198.400 152.783 C 198.070 152.301,196.346 149.993,194.570 147.653 C 192.793 145.314,190.652 142.410,189.812 141.200 C 188.972 139.990,188.035 138.730,187.730 138.400 C 187.424 138.070,185.928 136.090,184.404 134.000 C 182.880 131.910,181.356 129.885,181.016 129.500 C 180.677 129.115,180.400 128.629,180.400 128.420 C 180.400 128.211,180.175 127.896,179.900 127.720 C 179.253 127.306,176.400 123.757,176.400 123.366 C 176.400 123.202,176.131 122.782,175.801 122.434 C 175.472 122.085,174.540 120.900,173.730 119.800 C 172.920 118.700,171.390 116.680,170.329 115.311 C 169.268 113.943,168.400 112.678,168.400 112.500 C 168.400 112.323,168.085 111.880,167.700 111.517 C 166.598 110.477,166.000 109.669,166.000 109.220 C 166.000 108.993,165.640 108.582,165.200 108.307 C 164.760 108.032,164.400 107.679,164.400 107.522 C 164.400 106.892,161.000 102.351,159.204 100.581 L 158.208 99.600 125.553 99.600 C 97.014 99.600,92.835 99.676,92.400 100.200 M202.243 100.233 C 201.858 101.237,201.958 101.409,202.500 100.673 C 203.341 99.531,301.863 99.839,301.663 100.984 C 301.588 101.415,301.228 102.159,300.863 102.637 C 300.498 103.116,299.982 103.843,299.715 104.254 C 299.448 104.664,298.278 106.457,297.115 108.239 C 295.952 110.020,294.820 111.766,294.600 112.119 C 294.380 112.472,293.435 113.855,292.500 115.193 C 291.565 116.531,290.800 117.702,290.800 117.797 C 290.800 118.111,285.009 126.598,284.702 126.733 C 284.536 126.807,284.400 127.096,284.400 127.376 C 284.400 127.656,283.770 128.710,283.000 129.718 C 282.230 130.727,281.600 131.637,281.600 131.741 C 281.600 131.844,280.115 134.165,278.300 136.898 C 276.485 139.631,274.820 142.158,274.600 142.514 C 274.380 142.869,273.435 144.255,272.500 145.593 C 271.565 146.931,270.800 148.117,270.800 148.229 C 270.800 148.341,270.459 148.920,270.041 149.516 C 268.974 151.040,255.639 171.360,254.054 173.877 C 252.373 176.547,251.626 176.340,249.303 172.561 C 248.370 171.042,247.424 169.530,247.203 169.200 C 246.981 168.870,245.540 166.745,244.000 164.479 C 242.460 162.212,241.200 160.287,241.200 160.202 C 241.200 160.117,240.075 158.368,238.700 156.317 C 237.325 154.266,235.130 150.880,233.822 148.794 C 232.514 146.707,231.335 144.910,231.202 144.800 C 231.069 144.690,230.207 143.430,229.287 142.000 C 228.366 140.570,227.428 139.130,227.202 138.800 C 225.370 136.129,220.000 127.900,220.000 127.763 C 220.000 127.669,219.370 126.694,218.600 125.596 C 217.830 124.498,216.570 122.702,215.800 121.604 C 215.030 120.506,214.400 119.532,214.400 119.439 C 214.400 119.253,211.834 115.238,211.307 114.600 C 211.126 114.380,210.220 113.030,209.295 111.600 C 208.370 110.170,207.434 108.730,207.214 108.400 C 206.994 108.070,205.905 106.405,204.793 104.700 C 203.681 102.995,202.688 101.600,202.585 101.600 C 202.220 101.600,202.409 102.353,202.905 102.871 C 203.182 103.162,203.631 103.850,203.902 104.400 C 204.173 104.950,205.386 106.805,206.597 108.523 C 207.809 110.240,208.800 111.788,208.800 111.961 C 208.800 112.134,209.160 112.602,209.600 113.000 C 210.040 113.398,210.400 113.972,210.400 114.275 C 210.400 114.577,210.670 114.929,211.000 115.055 C 211.330 115.182,211.600 115.493,211.600 115.746 C 211.600 116.277,214.619 121.012,215.715 122.200 C 216.121 122.640,216.727 123.576,217.063 124.281 C 217.399 124.986,218.093 126.015,218.606 126.568 C 219.118 127.122,219.664 127.970,219.817 128.454 C 220.181 129.599,222.877 133.600,223.285 133.600 C 223.458 133.600,223.600 133.782,223.600 134.004 C 223.600 134.226,224.196 135.261,224.925 136.304 C 225.653 137.347,226.368 138.515,226.512 138.900 C 226.657 139.285,226.961 139.600,227.187 139.600 C 227.414 139.600,227.600 139.857,227.600 140.171 C 227.600 140.486,227.825 140.981,228.100 141.271 C 228.375 141.562,228.864 142.310,229.186 142.934 C 229.508 143.558,230.183 144.513,230.686 145.055 C 231.189 145.597,231.600 146.198,231.600 146.390 C 231.600 146.582,232.230 147.564,233.000 148.573 C 233.770 149.582,234.400 150.681,234.400 151.016 C 234.400 151.351,234.670 151.729,235.000 151.855 C 235.330 151.982,235.600 152.248,235.600 152.447 C 235.600 152.646,236.230 153.705,237.000 154.800 C 237.770 155.895,238.400 156.965,238.400 157.176 C 238.400 157.387,238.639 157.704,238.930 157.880 C 239.222 158.056,239.589 158.470,239.746 158.800 C 240.247 159.852,241.014 161.094,241.600 161.800 C 241.913 162.177,242.356 162.809,242.584 163.204 C 243.697 165.127,246.278 168.982,246.900 169.649 C 247.285 170.062,247.600 170.648,247.600 170.951 C 247.600 171.254,247.870 171.726,248.200 172.000 C 248.530 172.274,248.800 172.666,248.800 172.872 C 248.800 173.627,251.355 176.400,252.051 176.400 C 252.927 176.400,254.741 174.529,255.056 173.300 C 255.183 172.805,255.425 172.400,255.595 172.400 C 255.764 172.400,256.127 171.860,256.400 171.200 C 256.673 170.540,257.055 170.000,257.249 170.000 C 257.442 170.000,257.600 169.818,257.600 169.596 C 257.600 169.374,258.230 168.295,259.000 167.200 C 259.770 166.105,260.400 165.086,260.400 164.938 C 260.400 164.789,260.682 164.382,261.026 164.034 C 261.563 163.490,264.112 159.787,265.408 157.667 C 265.633 157.300,266.349 156.190,267.000 155.200 C 267.651 154.210,268.367 153.100,268.592 152.734 C 268.816 152.368,269.630 151.048,270.400 149.800 C 271.170 148.552,272.009 147.163,272.264 146.712 C 272.519 146.261,272.879 145.781,273.064 145.646 C 273.530 145.305,274.340 144.008,274.902 142.700 C 275.162 142.095,275.499 141.600,275.650 141.600 C 275.801 141.600,276.421 140.745,277.027 139.700 C 277.634 138.655,278.240 137.710,278.375 137.600 C 278.771 137.275,280.142 135.139,282.200 131.641 C 282.860 130.519,283.625 129.601,283.900 129.600 C 284.175 129.600,284.400 129.253,284.400 128.829 C 284.400 128.404,284.627 127.819,284.905 127.529 C 285.183 127.238,286.207 125.785,287.181 124.300 C 288.155 122.815,289.098 121.600,289.276 121.600 C 289.454 121.600,289.600 121.371,289.600 121.091 C 289.600 120.811,290.230 119.625,291.000 118.456 C 291.770 117.287,292.400 116.175,292.400 115.985 C 292.400 115.795,292.625 115.496,292.900 115.320 C 293.443 114.973,294.126 113.972,294.894 112.400 C 295.163 111.850,295.612 111.256,295.892 111.080 C 296.171 110.904,296.400 110.499,296.400 110.180 C 296.400 109.861,296.551 109.600,296.736 109.600 C 296.920 109.600,297.280 109.143,297.534 108.585 C 297.788 108.027,298.186 107.352,298.417 107.085 C 298.917 106.509,301.478 102.576,302.052 101.502 C 303.112 99.523,305.144 99.600,251.994 99.600 C 207.218 99.600,202.462 99.660,202.243 100.233 M146.356 224.900 C 146.097 225.395,145.370 226.456,144.742 227.258 C 144.114 228.059,143.603 229.049,143.606 229.458 C 143.611 230.115,143.668 230.101,144.106 229.333 C 145.522 226.846,147.080 224.797,147.719 224.579 C 148.452 224.329,149.600 224.996,149.600 225.670 C 149.600 225.875,150.454 227.338,151.497 228.921 C 152.541 230.505,153.576 232.107,153.797 232.482 C 154.019 232.858,155.027 234.388,156.039 235.882 C 160.069 241.840,163.498 247.008,165.400 249.994 C 166.500 251.721,168.296 254.544,169.390 256.267 C 171.335 259.327,172.400 260.719,172.400 260.199 C 172.400 259.660,169.093 254.400,168.754 254.400 C 168.559 254.400,168.400 254.218,168.400 253.996 C 168.400 253.774,167.770 252.695,167.000 251.600 C 166.230 250.505,165.600 249.426,165.600 249.204 C 165.600 248.982,165.449 248.800,165.264 248.800 C 165.080 248.800,164.720 248.343,164.466 247.785 C 164.212 247.227,163.814 246.552,163.583 246.285 C 163.041 245.660,160.400 241.581,160.400 241.369 C 160.400 241.280,159.770 240.382,159.000 239.373 C 158.230 238.364,157.600 237.365,157.600 237.152 C 157.600 236.939,156.700 235.576,155.600 234.123 C 154.500 232.670,153.600 231.238,153.600 230.940 C 153.600 230.643,153.411 230.400,153.179 230.400 C 152.948 230.400,152.575 229.874,152.351 229.232 C 152.127 228.590,151.687 227.965,151.372 227.845 C 151.057 227.724,150.800 227.349,150.800 227.013 C 150.800 226.676,150.659 226.400,150.488 226.400 C 150.316 226.400,149.972 225.860,149.722 225.200 C 149.139 223.654,147.105 223.473,146.356 224.900 M142.400 230.869 C 142.400 231.126,142.101 231.667,141.736 232.071 C 140.963 232.925,140.121 234.301,139.760 235.300 C 139.621 235.685,139.361 236.000,139.183 236.000 C 139.005 236.000,138.261 237.005,137.529 238.234 C 136.798 239.463,136.020 240.768,135.800 241.134 C 135.580 241.500,134.815 242.642,134.100 243.672 C 133.385 244.702,132.800 245.717,132.800 245.929 C 132.800 246.141,132.530 246.418,132.200 246.545 C 131.870 246.671,131.600 247.051,131.600 247.387 C 131.600 247.724,131.432 248.000,131.227 248.000 C 131.022 248.000,130.729 248.405,130.576 248.900 C 130.424 249.395,130.043 250.070,129.730 250.400 C 128.931 251.243,124.800 257.620,124.800 258.011 C 124.800 258.188,124.665 258.393,124.500 258.467 C 124.153 258.621,122.400 261.060,122.400 261.388 C 122.400 261.509,121.770 262.505,121.000 263.600 C 120.230 264.695,119.600 265.774,119.600 265.996 C 119.600 266.218,119.437 266.400,119.238 266.400 C 119.039 266.400,118.376 267.255,117.764 268.300 C 117.153 269.345,116.416 270.438,116.126 270.729 C 115.837 271.019,115.600 271.492,115.600 271.780 C 115.600 272.067,115.330 272.526,115.000 272.800 C 114.670 273.074,114.400 273.484,114.400 273.711 C 114.400 273.938,114.760 273.798,115.200 273.400 C 115.640 273.002,116.000 272.520,116.000 272.329 C 116.000 272.138,116.931 270.591,118.068 268.891 C 119.205 267.191,120.733 264.900,121.463 263.800 C 122.193 262.700,122.972 261.530,123.195 261.200 C 123.418 260.870,124.950 258.530,126.600 256.000 C 130.068 250.683,129.864 250.991,132.156 247.600 C 133.122 246.170,135.047 243.200,136.433 241.000 C 137.818 238.800,139.188 236.762,139.476 236.471 C 139.764 236.181,140.000 235.686,140.000 235.371 C 140.000 235.057,140.163 234.800,140.362 234.800 C 140.561 234.800,141.221 233.945,141.827 232.900 C 142.434 231.855,143.126 230.868,143.365 230.706 C 143.630 230.527,143.527 230.410,143.100 230.406 C 142.715 230.403,142.400 230.611,142.400 230.869 M175.007 264.625 C 176.433 266.729,177.600 268.520,177.600 268.605 C 177.600 268.868,180.046 272.400,180.228 272.400 C 180.633 272.400,180.342 271.656,179.604 270.805 C 179.166 270.300,178.501 269.192,178.127 268.343 C 177.752 267.495,177.296 266.800,177.113 266.800 C 176.930 266.800,176.609 266.350,176.400 265.800 C 176.191 265.250,175.835 264.800,175.610 264.800 C 175.384 264.800,175.200 264.585,175.200 264.322 C 175.200 263.693,173.189 260.800,172.752 260.800 C 172.566 260.800,173.580 262.521,175.007 264.625 M182.169 275.419 C 183.176 276.860,184.000 278.138,184.000 278.260 C 184.000 278.382,185.215 280.302,186.700 282.526 C 188.185 284.750,189.490 286.756,189.600 286.985 C 189.710 287.213,190.925 289.058,192.300 291.085 C 193.675 293.111,194.800 294.881,194.800 295.017 C 194.800 295.154,195.430 296.034,196.200 296.974 C 197.611 298.696,197.945 299.762,197.190 300.137 C 196.965 300.249,197.010 300.294,197.290 300.237 C 198.649 299.962,197.957 298.350,194.048 292.679 C 193.472 291.843,192.820 290.858,192.600 290.491 C 192.380 290.123,191.615 289.026,190.900 288.054 C 190.185 287.081,189.600 286.041,189.600 285.742 C 189.600 285.444,189.414 285.200,189.187 285.200 C 188.961 285.200,188.657 284.885,188.512 284.500 C 188.368 284.115,187.653 282.947,186.925 281.904 C 186.196 280.861,185.600 279.909,185.600 279.788 C 185.600 279.550,183.951 277.129,183.565 276.800 C 183.436 276.690,182.834 275.745,182.227 274.700 C 181.621 273.655,180.947 272.800,180.731 272.800 C 180.515 272.800,181.162 273.979,182.169 275.419 M113.448 275.010 C 113.091 275.366,112.800 275.832,112.800 276.045 C 112.800 276.438,112.336 277.077,111.150 278.319 C 110.792 278.694,110.375 279.405,110.223 279.900 C 110.071 280.395,109.819 280.800,109.665 280.800 C 109.510 280.800,108.937 281.655,108.392 282.700 C 107.846 283.745,107.175 284.744,106.900 284.920 C 106.625 285.096,106.400 285.501,106.400 285.820 C 106.400 286.139,106.085 286.731,105.700 287.135 C 104.924 287.950,104.139 289.085,103.720 290.000 C 103.569 290.330,103.210 290.838,102.922 291.129 C 102.412 291.645,102.213 292.400,102.588 292.400 C 102.691 292.400,103.456 291.377,104.288 290.128 C 105.119 288.878,106.070 287.457,106.400 286.971 C 106.905 286.226,108.557 283.576,110.205 280.866 C 111.219 279.198,112.252 277.682,113.329 276.282 C 114.526 274.724,114.608 273.849,113.448 275.010 M223.616 276.916 C 223.594 277.352,225.287 279.728,225.900 280.120 C 226.175 280.296,226.400 280.706,226.400 281.032 C 226.400 281.358,226.670 281.729,227.000 281.855 C 227.330 281.982,227.600 282.254,227.600 282.459 C 227.600 282.895,228.993 284.879,230.340 286.364 C 230.858 286.934,231.720 288.149,232.257 289.064 C 232.794 289.979,233.496 290.828,233.817 290.951 C 234.138 291.074,234.400 291.431,234.400 291.745 C 234.400 292.058,234.670 292.418,235.000 292.545 C 235.330 292.671,235.601 293.006,235.602 293.287 C 235.603 293.569,236.233 294.485,237.002 295.322 C 237.771 296.160,238.400 297.020,238.400 297.235 C 238.400 297.449,238.670 297.729,239.000 297.855 C 239.330 297.982,239.600 298.323,239.600 298.614 C 239.600 299.447,240.772 300.405,241.729 300.354 C 242.402 300.318,242.441 300.266,241.902 300.125 C 241.314 299.971,237.245 295.023,235.200 291.974 C 234.870 291.482,233.599 289.801,232.375 288.239 C 231.151 286.678,229.216 284.043,228.075 282.385 C 225.781 279.052,223.641 276.427,223.616 276.916 M101.788 293.122 C 101.209 293.537,99.600 295.910,99.600 296.350 C 99.600 296.561,99.465 296.793,99.300 296.867 C 99.135 296.940,98.594 297.578,98.099 298.285 L 97.198 299.571 98.020 300.011 C 98.472 300.253,99.147 300.370,99.521 300.272 C 100.020 300.140,99.968 300.080,99.324 300.046 C 98.081 299.981,97.897 299.441,98.744 298.347 C 101.474 294.818,102.945 292.293,101.788 293.122 " stroke="none" fill="#3d5818" fill-rule="evenodd"></path><path id="path3" d="M125.663 100.300 L 157.525 100.405 158.598 101.702 C 159.188 102.416,161.544 105.520,163.834 108.600 C 166.124 111.680,168.140 114.380,168.315 114.600 C 168.490 114.820,169.390 115.990,170.316 117.200 C 171.241 118.410,172.236 119.670,172.527 120.000 C 172.818 120.330,173.488 121.230,174.017 122.000 C 174.546 122.770,175.120 123.580,175.293 123.800 C 176.164 124.908,182.680 133.665,183.200 134.425 C 183.768 135.257,191.609 145.750,192.298 146.600 C 192.476 146.820,193.063 147.630,193.604 148.400 C 194.144 149.170,196.389 152.161,198.593 155.046 C 200.797 157.931,202.870 160.698,203.200 161.195 C 203.530 161.692,203.981 162.301,204.203 162.549 C 205.020 163.465,206.618 165.515,207.200 166.396 C 207.844 167.370,215.704 177.885,216.380 178.676 C 216.603 178.937,217.284 179.864,217.893 180.735 C 219.029 182.360,226.033 191.710,226.944 192.818 C 228.107 194.233,230.642 197.552,231.200 198.391 C 231.530 198.888,233.644 201.748,235.897 204.747 C 238.150 207.746,240.220 210.501,240.497 210.870 C 240.774 211.238,241.270 211.941,241.600 212.432 C 241.930 212.922,243.505 215.011,245.100 217.074 C 246.695 219.137,248.000 220.999,248.000 221.212 C 248.000 221.426,248.156 221.600,248.346 221.600 C 248.536 221.600,249.205 222.365,249.834 223.300 C 250.463 224.235,251.432 225.557,251.988 226.237 C 252.545 226.917,253.270 227.887,253.600 228.393 C 253.930 228.898,254.574 229.781,255.030 230.356 C 255.487 230.930,256.413 232.210,257.088 233.200 C 257.763 234.190,258.691 235.450,259.150 236.000 C 260.319 237.399,260.475 237.599,261.812 239.400 C 262.465 240.280,263.237 241.250,263.528 241.556 C 263.818 241.862,264.353 242.582,264.718 243.156 C 265.083 243.730,265.610 244.344,265.890 244.520 C 266.171 244.696,266.400 245.005,266.400 245.207 C 266.400 245.410,268.290 248.029,270.600 251.028 C 272.910 254.027,274.800 256.610,274.800 256.769 C 274.800 256.927,275.295 257.615,275.900 258.298 C 276.505 258.982,277.270 259.940,277.600 260.427 C 277.930 260.915,278.560 261.732,279.000 262.244 C 279.440 262.755,280.430 264.083,281.200 265.194 C 281.970 266.305,283.086 267.773,283.680 268.457 C 284.274 269.140,285.263 270.442,285.878 271.350 C 287.174 273.263,291.869 279.610,295.287 284.070 C 295.569 284.438,296.070 285.138,296.400 285.626 C 296.730 286.113,297.641 287.341,298.425 288.356 C 302.829 294.055,306.400 298.931,306.400 299.243 C 306.400 299.448,293.029 299.641,274.900 299.698 L 243.400 299.795 274.731 299.900 C 291.963 299.958,306.306 299.869,306.603 299.702 C 307.237 299.347,305.902 297.203,301.300 291.190 C 297.754 286.555,295.804 283.953,291.417 278.000 C 283.959 267.879,279.355 261.751,278.500 260.804 C 278.005 260.256,277.600 259.651,277.600 259.460 C 277.600 259.268,276.835 258.186,275.900 257.056 C 274.965 255.925,274.062 254.820,273.893 254.600 C 272.207 252.400,265.548 243.442,264.677 242.200 C 264.059 241.320,262.488 239.250,261.185 237.600 C 259.882 235.950,256.709 231.720,254.133 228.200 C 251.557 224.680,248.792 220.990,247.987 220.000 C 247.182 219.010,245.821 217.196,244.962 215.969 C 244.103 214.741,242.708 212.851,241.861 211.769 C 241.015 210.686,238.996 208.000,237.374 205.800 C 235.753 203.600,233.599 200.720,232.589 199.400 C 229.187 194.957,222.683 186.216,221.278 184.200 C 220.512 183.100,219.642 181.930,219.344 181.600 C 219.046 181.270,218.136 180.100,217.320 179.000 C 213.525 173.880,211.930 171.753,211.465 171.189 C 211.188 170.853,210.160 169.504,209.180 168.190 C 208.201 166.876,207.262 165.620,207.093 165.400 C 206.924 165.180,204.349 161.760,201.371 157.800 C 198.393 153.840,195.471 149.989,194.878 149.243 C 194.285 148.496,193.096 146.876,192.236 145.643 C 190.965 143.820,187.395 139.017,183.433 133.800 C 183.099 133.360,181.297 130.930,179.429 128.400 C 175.329 122.848,175.194 122.669,173.420 120.400 C 172.646 119.410,171.747 118.240,171.422 117.800 C 170.804 116.963,169.078 114.648,166.054 110.600 C 165.068 109.280,163.265 106.850,162.049 105.200 C 160.832 103.550,159.390 101.705,158.843 101.100 L 157.850 100.000 125.825 100.098 L 93.800 100.195 125.663 100.300 M202.979 100.434 C 202.634 100.992,203.710 103.081,206.100 106.491 C 207.145 107.983,208.012 109.337,208.027 109.501 C 208.042 109.666,208.846 110.880,209.814 112.200 C 210.782 113.520,212.393 115.950,213.395 117.600 C 214.396 119.250,215.733 121.320,216.365 122.200 C 216.998 123.080,218.614 125.510,219.957 127.600 C 221.300 129.690,223.302 132.750,224.407 134.400 C 225.511 136.050,227.700 139.380,229.270 141.800 C 230.841 144.220,234.193 149.350,236.720 153.200 C 239.248 157.050,242.851 162.540,244.728 165.400 C 252.907 177.863,251.903 177.455,256.400 170.151 C 257.390 168.543,259.026 166.006,260.036 164.514 C 261.046 163.021,263.225 159.730,264.878 157.200 C 266.531 154.670,269.768 149.720,272.070 146.200 C 274.373 142.680,277.611 137.730,279.265 135.200 C 280.920 132.670,283.697 128.467,285.437 125.860 C 287.177 123.253,289.126 120.283,289.769 119.260 C 290.412 118.237,291.942 115.903,293.169 114.072 C 294.396 112.242,295.584 110.442,295.808 110.072 C 296.033 109.703,296.749 108.590,297.400 107.600 C 299.047 105.096,299.506 104.330,299.958 103.339 C 300.174 102.865,300.542 102.360,300.775 102.215 C 301.009 102.071,301.200 101.759,301.200 101.522 C 301.200 101.286,300.840 101.550,300.400 102.109 C 299.960 102.669,299.600 103.323,299.600 103.563 C 299.600 103.803,299.416 104.000,299.190 104.000 C 298.965 104.000,298.603 104.405,298.386 104.900 C 297.945 105.907,295.860 109.145,293.300 112.799 C 292.365 114.133,291.600 115.399,291.600 115.613 C 291.600 115.826,291.438 116.000,291.239 116.000 C 291.041 116.000,290.684 116.495,290.447 117.100 C 290.096 117.996,285.774 124.568,284.443 126.231 C 284.253 126.468,283.974 127.053,283.822 127.531 C 283.670 128.009,283.373 128.400,283.160 128.400 C 282.948 128.400,282.661 128.715,282.521 129.100 C 282.381 129.485,281.757 130.456,281.134 131.258 C 280.510 132.059,280.000 132.901,280.000 133.129 C 280.000 133.357,279.769 133.781,279.486 134.071 C 279.204 134.362,278.220 135.770,277.301 137.200 C 276.381 138.630,275.353 140.152,275.015 140.581 C 274.677 141.011,274.400 141.505,274.400 141.678 C 274.400 141.851,273.815 142.778,273.100 143.737 C 272.385 144.696,271.582 145.822,271.315 146.240 C 270.600 147.359,266.683 153.354,266.088 154.239 C 265.807 154.657,264.907 156.051,264.088 157.336 C 261.642 161.175,255.682 170.142,255.018 170.981 C 254.678 171.411,254.400 171.913,254.400 172.098 C 254.400 172.708,252.658 174.800,252.151 174.800 C 251.680 174.800,241.600 160.075,241.600 159.388 C 241.600 159.212,241.321 158.782,240.981 158.434 C 240.640 158.085,239.092 155.820,237.539 153.400 C 235.987 150.980,234.196 148.230,233.559 147.288 C 232.921 146.347,232.400 145.477,232.400 145.356 C 232.400 145.234,231.798 144.384,231.062 143.467 C 230.326 142.550,229.599 141.530,229.446 141.200 C 229.027 140.295,228.419 139.334,225.797 135.438 C 224.479 133.480,223.220 131.590,223.000 131.238 C 221.549 128.923,220.365 127.132,219.077 125.304 C 218.265 124.151,217.600 123.100,217.600 122.967 C 217.600 122.835,217.285 122.314,216.900 121.809 C 216.515 121.305,215.974 120.557,215.698 120.146 C 213.796 117.321,210.131 111.811,209.800 111.281 C 209.580 110.928,208.857 109.821,208.194 108.820 C 207.531 107.819,206.635 106.325,206.203 105.500 C 205.771 104.675,205.270 104.000,205.088 104.000 C 204.907 104.000,204.570 103.460,204.340 102.800 C 204.110 102.140,203.759 101.600,203.561 101.600 C 203.362 101.600,203.200 101.331,203.200 101.002 C 203.200 100.474,209.004 100.391,252.100 100.300 L 301.000 100.197 252.124 100.098 C 217.316 100.028,203.170 100.125,202.979 100.434 M93.200 100.577 C 93.200 101.143,95.514 104.510,99.421 109.626 C 101.867 112.830,104.616 116.520,105.528 117.826 C 106.441 119.132,109.125 122.763,111.494 125.897 C 115.290 130.918,116.788 132.952,119.508 136.771 C 120.160 137.686,122.219 140.302,123.292 141.579 C 123.560 141.897,124.450 143.067,125.270 144.179 C 126.091 145.290,126.926 146.391,127.127 146.625 C 127.328 146.859,127.719 147.474,127.996 147.992 C 128.273 148.510,129.242 149.878,130.150 151.033 C 131.057 152.188,132.160 153.633,132.600 154.245 C 133.040 154.857,135.502 158.157,138.072 161.579 C 140.641 165.001,143.482 168.796,144.384 170.012 C 145.286 171.229,146.423 172.704,146.912 173.290 C 147.400 173.875,148.610 175.487,149.600 176.870 C 153.169 181.857,159.962 191.017,160.666 191.793 C 161.062 192.229,162.749 194.479,164.414 196.793 C 166.080 199.107,168.783 202.748,170.422 204.884 C 172.060 207.021,175.380 211.488,177.800 214.811 C 181.603 220.032,185.141 224.765,189.490 230.450 C 190.101 231.248,190.870 232.295,191.200 232.777 C 192.083 234.066,198.666 242.898,199.276 243.613 C 199.865 244.302,201.409 246.383,204.609 250.800 C 205.804 252.450,207.281 254.411,207.891 255.159 C 208.501 255.906,209.810 257.649,210.800 259.032 C 213.569 262.902,218.712 269.726,219.391 270.434 C 219.726 270.782,220.000 271.179,220.000 271.315 C 220.000 271.452,221.935 274.139,224.300 277.287 C 226.665 280.435,229.327 283.999,230.215 285.206 C 231.104 286.412,233.264 289.290,235.017 291.600 C 236.770 293.910,238.730 296.576,239.373 297.524 C 240.662 299.425,241.688 300.144,242.721 299.872 C 243.299 299.719,243.288 299.686,242.646 299.646 C 242.003 299.607,240.778 298.511,239.689 297.000 C 238.545 295.413,236.960 293.325,236.614 292.949 C 236.387 292.701,235.930 292.096,235.600 291.606 C 235.050 290.787,230.433 284.484,229.005 282.600 C 228.671 282.160,227.676 280.819,226.793 279.620 C 225.911 278.421,225.038 277.341,224.854 277.220 C 224.670 277.099,224.448 276.803,224.360 276.563 C 224.204 276.139,222.829 274.274,215.459 264.497 C 213.511 261.914,211.289 258.855,210.520 257.700 C 209.751 256.545,208.960 255.600,208.761 255.600 C 208.562 255.600,208.400 255.387,208.400 255.126 C 208.400 254.865,208.061 254.280,207.646 253.826 C 207.231 253.372,205.406 250.930,203.590 248.400 C 201.774 245.870,200.169 243.710,200.024 243.600 C 199.878 243.490,199.153 242.545,198.412 241.500 C 197.671 240.455,196.915 239.600,196.732 239.600 C 196.549 239.600,196.400 239.394,196.400 239.141 C 196.400 238.889,195.770 237.914,195.000 236.974 C 194.230 236.034,193.600 235.071,193.600 234.833 C 193.600 234.595,193.450 234.400,193.267 234.400 C 193.084 234.400,192.378 233.541,191.698 232.492 C 191.018 231.442,189.998 230.083,189.431 229.471 C 188.864 228.859,188.400 228.227,188.400 228.066 C 188.400 227.756,186.818 225.745,185.300 224.125 C 184.805 223.596,184.400 223.005,184.400 222.810 C 184.400 222.616,184.169 222.219,183.887 221.929 C 183.605 221.638,182.932 220.772,182.392 220.005 C 181.852 219.238,181.175 218.338,180.887 218.005 C 179.380 216.265,173.600 208.359,173.600 208.039 C 173.600 207.834,173.465 207.607,173.300 207.533 C 173.135 207.460,172.465 206.680,171.812 205.800 C 171.159 204.920,170.478 204.020,170.299 203.800 C 170.120 203.580,168.704 201.690,167.152 199.600 C 165.601 197.510,164.031 195.407,163.665 194.928 C 163.299 194.448,162.730 193.655,162.400 193.165 C 162.070 192.676,161.485 191.993,161.100 191.649 C 160.715 191.304,160.400 190.885,160.400 190.717 C 160.400 190.455,158.351 187.649,155.092 183.450 C 154.602 182.818,153.660 181.530,153.000 180.588 C 151.006 177.742,148.303 174.084,146.400 171.655 C 145.410 170.392,144.240 168.851,143.800 168.230 C 143.360 167.609,141.825 165.549,140.389 163.651 C 138.954 161.753,137.442 159.660,137.031 159.000 C 136.619 158.340,136.033 157.530,135.729 157.200 C 134.522 155.893,133.107 154.150,132.479 153.200 C 132.116 152.650,131.590 152.056,131.310 151.880 C 131.029 151.704,130.800 151.314,130.800 151.013 C 130.800 150.713,130.665 150.407,130.500 150.333 C 130.335 150.260,129.660 149.390,129.000 148.400 C 128.340 147.410,127.663 146.420,127.496 146.200 C 124.828 142.685,123.733 141.345,123.310 141.080 C 123.030 140.904,122.800 140.576,122.800 140.352 C 122.800 140.127,122.575 139.691,122.300 139.384 C 122.025 139.076,120.540 137.100,119.000 134.994 C 116.125 131.061,107.177 119.032,103.679 114.400 C 102.600 112.970,100.498 110.090,99.008 108.000 C 97.519 105.910,96.090 104.020,95.833 103.800 C 95.577 103.580,94.954 102.725,94.451 101.900 C 93.620 100.540,93.200 100.096,93.200 100.577 M145.919 226.683 C 145.194 227.718,144.330 229.061,144.000 229.668 C 143.324 230.909,139.544 236.492,139.171 236.800 C 139.038 236.910,138.045 238.471,136.964 240.268 C 135.884 242.065,133.380 245.979,131.400 248.964 C 119.902 266.300,114.685 274.269,114.486 274.800 C 114.362 275.130,113.518 276.390,112.610 277.600 C 111.702 278.810,109.995 281.330,108.815 283.200 C 107.636 285.070,105.200 288.850,103.401 291.600 C 98.359 299.308,98.274 299.466,99.028 299.755 C 99.378 299.890,121.526 300.000,148.245 300.000 C 202.343 300.000,198.151 300.251,196.129 297.137 C 195.508 296.182,194.910 295.220,194.800 295.000 C 194.556 294.512,184.723 279.601,183.253 277.488 C 182.674 276.657,182.020 275.667,181.800 275.288 C 181.580 274.909,179.961 272.440,178.202 269.800 C 176.443 267.160,174.823 264.700,174.602 264.333 C 174.381 263.966,173.480 262.585,172.600 261.265 C 171.720 259.944,170.460 258.007,169.800 256.960 C 169.140 255.913,168.420 254.772,168.200 254.425 C 167.980 254.077,166.253 251.454,164.362 248.596 C 161.120 243.696,152.694 230.932,151.807 229.578 C 151.583 229.235,150.788 228.020,150.040 226.878 C 148.345 224.288,147.621 224.254,145.919 226.683 M149.788 227.515 C 150.442 228.552,151.129 229.580,151.314 229.800 C 151.500 230.020,152.625 231.730,153.815 233.600 C 155.004 235.470,156.163 237.270,156.391 237.600 C 157.415 239.086,161.841 245.734,162.205 246.333 C 162.788 247.293,164.141 249.332,164.505 249.800 C 164.799 250.176,167.658 254.613,170.092 258.470 C 170.693 259.421,171.413 260.559,171.692 260.998 C 171.972 261.438,172.665 262.428,173.234 263.198 C 173.802 263.969,174.381 264.915,174.521 265.300 C 174.661 265.685,174.961 266.000,175.187 266.000 C 175.414 266.000,175.600 266.244,175.600 266.542 C 175.600 266.841,176.230 267.910,177.000 268.918 C 177.770 269.927,178.400 270.847,178.400 270.963 C 178.400 271.080,179.165 272.269,180.100 273.607 C 181.035 274.945,182.070 276.461,182.400 276.977 C 183.647 278.924,185.820 282.501,186.322 283.432 C 186.609 283.964,187.014 284.400,187.222 284.400 C 187.430 284.400,187.600 284.582,187.600 284.804 C 187.600 285.026,188.230 286.105,189.000 287.200 C 189.770 288.295,190.400 289.271,190.400 289.368 C 190.400 289.464,191.165 290.658,192.100 292.021 C 193.035 293.384,193.984 294.792,194.208 295.149 C 194.433 295.507,195.108 296.561,195.708 297.492 C 196.309 298.423,196.800 299.278,196.800 299.392 C 196.800 299.506,174.840 299.600,148.000 299.600 C 121.160 299.600,99.200 299.491,99.200 299.358 C 99.200 299.225,99.704 298.370,100.319 297.458 C 100.934 296.546,101.565 295.530,101.722 295.200 C 102.040 294.526,104.197 291.222,106.600 287.727 C 107.480 286.447,108.380 285.106,108.600 284.746 C 108.820 284.387,109.531 283.217,110.180 282.146 C 110.829 281.076,111.594 280.056,111.880 279.880 C 112.166 279.704,112.400 279.218,112.400 278.800 C 112.400 278.382,112.641 277.896,112.936 277.720 C 113.231 277.544,113.958 276.590,114.553 275.600 C 115.148 274.610,115.852 273.440,116.117 273.000 C 116.383 272.560,117.159 271.480,117.843 270.600 C 118.526 269.720,119.475 268.235,119.951 267.300 C 120.427 266.365,120.993 265.600,121.208 265.600 C 121.424 265.600,121.600 265.403,121.600 265.162 C 121.600 264.921,122.635 263.195,123.900 261.327 C 125.165 259.460,126.380 257.651,126.600 257.309 C 126.820 256.967,127.938 255.227,129.085 253.443 C 130.232 251.659,131.360 249.980,131.591 249.711 C 131.822 249.441,132.185 248.766,132.396 248.211 C 132.607 247.655,132.965 247.200,133.190 247.200 C 133.416 247.200,133.600 247.001,133.600 246.758 C 133.600 246.514,134.110 245.659,134.734 244.858 C 135.357 244.056,135.964 243.130,136.083 242.799 C 136.267 242.285,142.614 232.554,143.517 231.400 C 143.689 231.180,144.613 229.785,145.571 228.300 C 147.633 225.100,148.200 224.995,149.788 227.515 " stroke="none" fill="#64843c" fill-rule="evenodd"></path><path id="path4" d="M92.618 100.371 C 92.492 100.575,92.862 101.250,93.440 101.871 L 94.491 103.000 93.803 101.850 C 93.236 100.901,93.211 100.639,93.658 100.356 C 94.084 100.086,94.055 100.011,93.524 100.006 C 93.152 100.003,92.744 100.167,92.618 100.371 M202.533 100.631 C 202.395 100.990,202.607 101.551,203.023 101.931 C 203.711 102.559,203.724 102.558,203.233 101.905 C 202.946 101.523,202.815 100.938,202.943 100.605 C 203.070 100.272,203.085 100.000,202.975 100.000 C 202.865 100.000,202.666 100.284,202.533 100.631 M301.050 100.270 C 301.546 100.634,301.141 102.142,300.428 102.583 C 300.193 102.728,300.000 103.041,300.000 103.278 C 300.000 103.922,301.505 101.883,301.663 101.025 C 301.738 100.617,301.530 100.206,301.200 100.111 C 300.809 99.999,300.756 100.054,301.050 100.270 M148.300 224.812 C 148.795 225.011,149.200 225.390,149.200 225.654 C 149.200 225.918,149.316 226.018,149.457 225.876 C 149.847 225.486,148.791 224.397,148.051 224.425 C 147.610 224.443,147.691 224.568,148.300 224.812 M98.639 298.465 C 98.001 299.376,98.124 300.021,98.924 299.968 C 99.248 299.947,99.234 299.870,98.880 299.728 C 98.468 299.563,98.491 299.321,98.989 298.560 C 99.772 297.365,99.468 297.283,98.639 298.465 M196.745 298.095 C 198.300 300.079,200.277 299.993,150.713 300.098 L 104.600 300.197 150.200 300.308 C 175.280 300.369,196.205 300.322,196.700 300.202 C 197.784 299.940,197.891 298.727,196.900 297.949 C 196.267 297.452,196.252 297.466,196.745 298.095 M100.705 300.283 C 101.202 300.379,101.922 300.375,102.305 300.275 C 102.687 300.175,102.280 300.096,101.400 300.101 C 100.520 300.105,100.207 300.187,100.705 300.283 M259.300 300.300 C 267.165 300.360,280.035 300.360,287.900 300.300 C 295.765 300.239,289.330 300.190,273.600 300.190 C 257.870 300.190,251.435 300.239,259.300 300.300 M303.305 300.287 C 303.914 300.379,304.814 300.377,305.305 300.282 C 305.797 300.187,305.300 300.111,304.200 300.114 C 303.100 300.117,302.697 300.195,303.305 300.287 " stroke="none" fill="#646c4c" fill-rule="evenodd"></path></g></svg>